<svg width="60" height="14" viewBox="0 0 60 14" fill="none" xmlns="http://www.w3.org/2000/svg">
<path d="M52.0997 7.42531L51.5897 10.9203H48.2297L47.0747 5.32531H46.5947V3.57031H49.8647V5.32531H49.1297L49.7597 9.00031H50.1347L50.9897 3.57031H54.2147L55.0397 9.06031H55.4147L56.1047 5.32531H55.3847V3.57031H58.5047V5.32531H58.0247L56.8697 10.9203H53.4497L52.9547 7.42531L52.6697 5.43031H52.3847L52.0997 7.42531Z" fill="#8F0BC7"/>
<path d="M33.484 9.165V10.92H29.164V9.165H30.004V5.34H29.104V3.57H30.004V1.695L31.699 0H36.799L37.729 0.93V9.15H38.569V10.92H34.894V9.15H35.734V1.92H32.494L31.984 2.415V3.57H34.219V5.34H31.984V9.165H33.484Z" fill="#8F0BC7"/>
<path d="M28.4801 5.32482H27.9251L26.2451 10.9198H22.9301L21.1901 5.32482H20.6201V3.56982H24.1001V5.32482H23.3051L24.3251 9.05982H24.9401L25.9601 5.32482H25.1651V3.56982H28.4801V5.32482Z" fill="#8F0BC7"/>
<path d="M19.4283 9.16482V10.9198H15.0933V9.16482H16.0083V5.32482H15.0933V3.56982H17.0133L17.8833 4.45482L18.7683 3.56982H20.1783V5.48982H18.8583L17.9283 6.34482V9.16482H19.4283Z" fill="#8F0BC7"/>
<path d="M14.2887 9.47983L12.8487 10.9198H9.89373L8.19873 9.22482V5.26482L9.89373 3.56982H12.5487L14.2437 5.26482V6.91482L13.3287 7.82982H10.1787V8.54982L10.6887 9.05982H12.1737L13.0137 8.20482L14.2887 9.47983ZM10.1787 5.93982V6.43482H12.2637V5.93982L11.7537 5.42982H10.6887L10.1787 5.93982Z" fill="#8F0BC7"/>
<path d="M7.08 6.31508V9.15008L5.325 10.9201H1.755L0 9.15008V7.24508H1.98V8.31008L2.685 9.01508H4.305L5.025 8.29508V7.17008L4.32 6.46508H1.8L0.045 4.69508V2.10008L1.8 0.330078H5.28L7.035 2.10008V4.00508H5.055V2.95508L4.35 2.25008H2.805L2.1 2.95508V3.84008L2.82 4.56008H5.325L7.08 6.31508Z" fill="#8F0BC7"/>
<path fill-rule="evenodd" clip-rule="evenodd" d="M42.7859 4.42001L40.4739 7.08599L43.1652 9.42004L45.4773 6.75406L42.7859 4.42001ZM39.1282 5.91896C38.4897 6.65515 38.5746 7.77445 39.3178 8.41898L42.0092 10.753C42.7524 11.3976 43.8724 11.3233 44.5109 10.5871L46.8229 7.92109C47.4614 7.1849 47.3765 6.0656 46.6333 5.42107L43.942 3.08701C43.1988 2.44248 42.0787 2.51679 41.4403 3.25298L39.1282 5.91896Z" fill="#8F0BC7"/>
</svg>
