<svg width="60" height="14" viewBox="0 0 60 14" fill="none" xmlns="http://www.w3.org/2000/svg">
<path d="M52.0997 7.42507L51.5897 10.9201H48.2297L47.0747 5.32507H46.5947V3.57007H49.8647V5.32507H49.1297L49.7597 9.00007H50.1347L50.9897 3.57007H54.2147L55.0397 9.06007H55.4147L56.1047 5.32507H55.3847V3.57007H58.5047V5.32507H58.0247L56.8697 10.9201H53.4497L52.9547 7.42507L52.6697 5.43007H52.3847L52.0997 7.42507Z" fill="url(#paint0_linear_2319_162)"/>
<path d="M33.484 9.165V10.92H29.164V9.165H30.004V5.34H29.104V3.57H30.004V1.695L31.699 0H36.799L37.729 0.93V9.15H38.569V10.92H34.894V9.15H35.734V1.92H32.494L31.984 2.415V3.57H34.219V5.34H31.984V9.165H33.484Z" fill="url(#paint1_linear_2319_162)"/>
<path d="M28.4801 5.32507H27.9251L26.2451 10.9201H22.9301L21.1901 5.32507H20.6201V3.57007H24.1001V5.32507H23.3051L24.3251 9.06007H24.9401L25.9601 5.32507H25.1651V3.57007H28.4801V5.32507Z" fill="url(#paint2_linear_2319_162)"/>
<path d="M19.4283 9.16507V10.9201H15.0933V9.16507H16.0083V5.32507H15.0933V3.57007H17.0133L17.8833 4.45507L18.7683 3.57007H20.1783V5.49007H18.8583L17.9283 6.34507V9.16507H19.4283Z" fill="url(#paint3_linear_2319_162)"/>
<path d="M14.2887 9.48007L12.8487 10.9201H9.89373L8.19873 9.22507V5.26507L9.89373 3.57007H12.5487L14.2437 5.26507V6.91507L13.3287 7.83007H10.1787V8.55007L10.6887 9.06007H12.1737L13.0137 8.20507L14.2887 9.48007ZM10.1787 5.94007V6.43507H12.2637V5.94007L11.7537 5.43007H10.6887L10.1787 5.94007Z" fill="url(#paint4_linear_2319_162)"/>
<path d="M7.08 6.31508V9.15008L5.325 10.9201H1.755L0 9.15008V7.24508H1.98V8.31008L2.685 9.01508H4.305L5.025 8.29508V7.17008L4.32 6.46508H1.8L0.045 4.69508V2.10008L1.8 0.330078H5.28L7.035 2.10008V4.00508H5.055V2.95508L4.35 2.25008H2.805L2.1 2.95508V3.84008L2.82 4.56008H5.325L7.08 6.31508Z" fill="url(#paint5_linear_2319_162)"/>
<path fill-rule="evenodd" clip-rule="evenodd" d="M42.7859 4.41976L40.4739 7.08575L43.1652 9.4198L45.4773 6.75382L42.7859 4.41976ZM39.1282 5.91872C38.4897 6.65491 38.5746 7.77421 39.3178 8.41874L42.0092 10.7528C42.7524 11.3973 43.8724 11.323 44.5109 10.5868L46.8229 7.92084C47.4614 7.18465 47.3765 6.06536 46.6333 5.42083L43.942 3.08677C43.1988 2.44224 42.0787 2.51654 41.4403 3.25273L39.1282 5.91872Z" fill="url(#paint6_linear_2319_162)"/>
<defs>
<linearGradient id="paint0_linear_2319_162" x1="52.5497" y1="3.57007" x2="52.5497" y2="10.9201" gradientUnits="userSpaceOnUse">
<stop stop-color="#EEE9F7"/>
<stop offset="1" stop-color="white"/>
</linearGradient>
<linearGradient id="paint1_linear_2319_162" x1="33.8365" y1="0" x2="33.8365" y2="10.92" gradientUnits="userSpaceOnUse">
<stop stop-color="#EEE9F7"/>
<stop offset="1" stop-color="white"/>
</linearGradient>
<linearGradient id="paint2_linear_2319_162" x1="24.5501" y1="3.57007" x2="24.5501" y2="10.9201" gradientUnits="userSpaceOnUse">
<stop stop-color="#EEE9F7"/>
<stop offset="1" stop-color="white"/>
</linearGradient>
<linearGradient id="paint3_linear_2319_162" x1="17.6358" y1="3.57007" x2="17.6358" y2="10.9201" gradientUnits="userSpaceOnUse">
<stop stop-color="#EEE9F7"/>
<stop offset="1" stop-color="white"/>
</linearGradient>
<linearGradient id="paint4_linear_2319_162" x1="11.2437" y1="3.57007" x2="11.2437" y2="10.9201" gradientUnits="userSpaceOnUse">
<stop stop-color="#EEE9F7"/>
<stop offset="1" stop-color="white"/>
</linearGradient>
<linearGradient id="paint5_linear_2319_162" x1="3.54" y1="0.330078" x2="3.54" y2="10.9201" gradientUnits="userSpaceOnUse">
<stop stop-color="#EEE9F7"/>
<stop offset="1" stop-color="white"/>
</linearGradient>
<linearGradient id="paint6_linear_2319_162" x1="40.2842" y1="4.58573" x2="45.6669" y2="9.25384" gradientUnits="userSpaceOnUse">
<stop stop-color="#EEE9F7"/>
<stop offset="1" stop-color="white"/>
</linearGradient>
</defs>
</svg>
